<svg xmlns="http://www.w3.org/2000/svg" width="960" height="560" viewBox="0 0 960 560" fill="none" role="img" aria-label="Chat projects folder in a macOS window">

  <defs>
    <linearGradient id="sky" x1="0" y1="0" x2="0" y2="1">
      <stop offset="0" stop-color="#D7E4DC"/>
      <stop offset="0.55" stop-color="#EFE8DC"/>
      <stop offset="1" stop-color="#C4D0C4"/>
    </linearGradient>
    <radialGradient id="mist" cx="50%" cy="70%" r="60%">
      <stop offset="0" stop-color="#FAF8F4" stop-opacity="0.35"/>
      <stop offset="1" stop-color="#1F4945" stop-opacity="0.12"/>
    </radialGradient>
  </defs>
  <rect width="960" height="560" fill="url(#sky)"/>
  <rect width="960" height="560" fill="url(#mist)"/>
  <path d="M0 360 C120 320 220 390 360 350 C500 310 620 390 960 330 L960 560 L0 560 Z" fill="#1F4945" opacity="0.22"/>
  <path d="M0 400 C160 360 280 430 480 390 C680 350 780 430 960 380 L960 560 L0 560 Z" fill="#211F1C" opacity="0.16"/>
  <ellipse cx="80" cy="430" rx="90" ry="64" fill="#1F4945" opacity="0.18"/><ellipse cx="180" cy="410" rx="70" ry="50" fill="#1F4945" opacity="0.22"/><ellipse cx="300" cy="440" rx="110" ry="79" fill="#1F4945" opacity="0.26"/><ellipse cx="720" cy="420" rx="95" ry="68" fill="#1F4945" opacity="0.18"/><ellipse cx="860" cy="400" rx="80" ry="57" fill="#1F4945" opacity="0.22"/>


  <rect x="67" y="57" width="826" height="446" rx="16" fill="none" stroke="#1F4945" stroke-width="2"/>
  <rect x="70" y="60" width="820" height="440" rx="13" fill="#FAF8F4"/>
  <rect x="70" y="60" width="820" height="440" rx="13" fill="none" stroke="#211F1C" stroke-width="1.5"/>
  <rect x="72" y="62" width="816" height="436" rx="11" fill="none" stroke="#E3DFD7" stroke-width="1"/>
  <rect x="70" y="60" width="820" height="36" rx="13" fill="#F3F0EA"/>
  <rect x="70" y="84" width="820" height="12" fill="#F3F0EA"/>
  <path d="M70 96 H890" stroke="#211F1C" stroke-width="1"/>
  <path d="M70 97 H890" stroke="#E3DFD7" stroke-width="1"/>
  
    <circle cx="88" cy="78" r="5" fill="#C4B8A8"/>
    <circle cx="104" cy="78" r="5" fill="#C4B8A8"/>
    <circle cx="120" cy="78" r="5" fill="#1F4945"/>

  <text x="480.0" y="83" text-anchor="middle" font-family="Inter, ui-sans-serif, sans-serif" font-size="12" font-weight="600" fill="#211F1C">Chat · Projects</text>

  <rect x="82" y="108" width="220" height="380" fill="#F3F0EA"/>
  <text x="98" y="136" text-anchor="start" font-family="Inter, ui-sans-serif, sans-serif" font-size="14" font-weight="600" fill="#211F1C">Projects</text>
  <rect x="94" y="152" width="196" height="36" rx="8" fill="#E1E5DE"/>
  <rect x="94" y="152" width="3" height="36" fill="#1F4945"/>
  <text x="110" y="175" text-anchor="start" font-family="Inter, ui-sans-serif, sans-serif" font-size="13" font-weight="600" fill="#1F4945">Launch notes</text>
  <text x="110" y="220" text-anchor="start" font-family="Inter, ui-sans-serif, sans-serif" font-size="13" font-weight="500" fill="#6E6A62">Research brief</text>
  <text x="110" y="252" text-anchor="start" font-family="Inter, ui-sans-serif, sans-serif" font-size="13" font-weight="500" fill="#6E6A62">Image drafts</text>
  <text x="330" y="136" text-anchor="start" font-family="Inter, ui-sans-serif, sans-serif" font-size="16" font-weight="600" fill="#211F1C">Launch notes</text>
  <text x="330" y="160" text-anchor="start" font-family="Inter, ui-sans-serif, sans-serif" font-size="13" font-weight="500" fill="#6E6A62">Threads and Library files stay in this folder.</text>
  <rect x="330" y="180" width="260" height="88" rx="10" fill="#FAF8F4" stroke="#E3DFD7"/>
  <text x="346" y="208" text-anchor="start" font-family="Inter, ui-sans-serif, sans-serif" font-size="11" font-weight="600" fill="#6E6A62">Thread</text>
  <text x="346" y="232" text-anchor="start" font-family="Inter, ui-sans-serif, sans-serif" font-size="13" font-weight="500" fill="#211F1C">Outline the September launch</text>
  <rect x="606" y="180" width="260" height="88" rx="10" fill="#FAF8F4" stroke="#E3DFD7"/>
  <text x="622" y="208" text-anchor="start" font-family="Inter, ui-sans-serif, sans-serif" font-size="11" font-weight="600" fill="#6E6A62">Library</text>
  <text x="622" y="232" text-anchor="start" font-family="Inter, ui-sans-serif, sans-serif" font-size="13" font-weight="500" fill="#211F1C">brief.pdf  ·  pinned</text>
  <rect x="330" y="284" width="536" height="160" rx="10" fill="#F3F0EA"/>
  <text x="350" y="318" text-anchor="start" font-family="Inter, ui-sans-serif, sans-serif" font-size="14" font-weight="500" fill="#211F1C">A project is a folder plus its chats —</text>
  <text x="350" y="342" text-anchor="start" font-family="Inter, ui-sans-serif, sans-serif" font-size="14" font-weight="500" fill="#211F1C">not a second selected pill in the sidebar.</text>
  <text x="350" y="378" text-anchor="start" font-family="Inter, ui-sans-serif, sans-serif" font-size="13" font-weight="500" fill="#6E6A62">Memory is account-scoped. Design canvases are a different object.</text>

</svg>
