<svg xmlns="http://www.w3.org/2000/svg" width="960" height="560" viewBox="0 0 960 560" fill="none" role="img" aria-label="Design canvas with frames and library in a macOS window">

  <defs>
    <linearGradient id="sky" x1="0" y1="0" x2="0" y2="1">
      <stop offset="0" stop-color="#D7E4DC"/>
      <stop offset="0.55" stop-color="#EFE8DC"/>
      <stop offset="1" stop-color="#C4D0C4"/>
    </linearGradient>
    <radialGradient id="mist" cx="50%" cy="70%" r="60%">
      <stop offset="0" stop-color="#FAF8F4" stop-opacity="0.35"/>
      <stop offset="1" stop-color="#1F4945" stop-opacity="0.12"/>
    </radialGradient>
  </defs>
  <rect width="960" height="560" fill="url(#sky)"/>
  <rect width="960" height="560" fill="url(#mist)"/>
  <path d="M0 360 C120 320 220 390 360 350 C500 310 620 390 960 330 L960 560 L0 560 Z" fill="#1F4945" opacity="0.22"/>
  <path d="M0 400 C160 360 280 430 480 390 C680 350 780 430 960 380 L960 560 L0 560 Z" fill="#211F1C" opacity="0.16"/>
  <ellipse cx="80" cy="430" rx="90" ry="64" fill="#1F4945" opacity="0.18"/><ellipse cx="180" cy="410" rx="70" ry="50" fill="#1F4945" opacity="0.22"/><ellipse cx="300" cy="440" rx="110" ry="79" fill="#1F4945" opacity="0.26"/><ellipse cx="720" cy="420" rx="95" ry="68" fill="#1F4945" opacity="0.18"/><ellipse cx="860" cy="400" rx="80" ry="57" fill="#1F4945" opacity="0.22"/>


  <rect x="67" y="53" width="826" height="454" rx="16" fill="none" stroke="#1F4945" stroke-width="2"/>
  <rect x="70" y="56" width="820" height="448" rx="13" fill="#FAF8F4"/>
  <rect x="70" y="56" width="820" height="448" rx="13" fill="none" stroke="#211F1C" stroke-width="1.5"/>
  <rect x="72" y="58" width="816" height="444" rx="11" fill="none" stroke="#E3DFD7" stroke-width="1"/>
  <rect x="70" y="56" width="820" height="36" rx="13" fill="#F3F0EA"/>
  <rect x="70" y="80" width="820" height="12" fill="#F3F0EA"/>
  <path d="M70 92 H890" stroke="#211F1C" stroke-width="1"/>
  <path d="M70 93 H890" stroke="#E3DFD7" stroke-width="1"/>
  
    <circle cx="88" cy="74" r="5" fill="#C4B8A8"/>
    <circle cx="104" cy="74" r="5" fill="#C4B8A8"/>
    <circle cx="120" cy="74" r="5" fill="#1F4945"/>

  <text x="480.0" y="79" text-anchor="middle" font-family="Inter, ui-sans-serif, sans-serif" font-size="12" font-weight="600" fill="#211F1C">Cortex Design · Untitled canvas</text>

  <rect x="82" y="104" width="796" height="388" rx="8" fill="#F3F0EA"/>
  <rect x="106" y="128" width="280" height="200" rx="8" fill="#FAF8F4" stroke="#211F1C" stroke-width="1.5"/>
  <rect x="108" y="130" width="276" height="196" rx="6" fill="none" stroke="#1F4945" stroke-width="2"/>
  <text x="122" y="160" text-anchor="start" font-family="Inter, ui-sans-serif, sans-serif" font-size="12" font-weight="600" fill="#6E6A62">Frame 01</text>
  <rect x="122" y="176" width="160" height="28" rx="6" fill="#211F1C"/>
  <text x="202" y="195" text-anchor="middle" font-family="Inter, ui-sans-serif, sans-serif" font-size="12" font-weight="600" fill="#FAF8F4">Primary</text>
  <rect x="122" y="216" width="200" height="12" rx="2" fill="#E3DFD7"/>
  <rect x="122" y="236" width="168" height="12" rx="2" fill="#E3DFD7"/>
  <rect x="410" y="152" width="220" height="140" rx="8" fill="#FAF8F4" stroke="#E3DFD7"/>
  <text x="426" y="184" text-anchor="start" font-family="Inter, ui-sans-serif, sans-serif" font-size="12" font-weight="600" fill="#6E6A62">Note</text>
  <text x="426" y="212" text-anchor="start" font-family="Inter, ui-sans-serif, sans-serif" font-size="13" font-weight="500" fill="#211F1C">Hosted from Chat or Code.</text>
  <text x="426" y="236" text-anchor="start" font-family="Inter, ui-sans-serif, sans-serif" font-size="13" font-weight="500" fill="#211F1C">Not a markdown sidecar.</text>
  <rect x="678" y="104" width="200" height="388" fill="#FAF8F4" stroke="#E3DFD7"/>
  <text x="694" y="140" text-anchor="start" font-family="Inter, ui-sans-serif, sans-serif" font-size="13" font-weight="600" fill="#211F1C">Library</text>
  <text x="694" y="172" text-anchor="start" font-family="Inter, ui-sans-serif, sans-serif" font-size="12" font-weight="500" fill="#6E6A62">Components</text>
  <text x="694" y="196" text-anchor="start" font-family="Inter, ui-sans-serif, sans-serif" font-size="12" font-weight="500" fill="#6E6A62">Pages</text>
  <text x="694" y="220" text-anchor="start" font-family="Inter, ui-sans-serif, sans-serif" font-size="12" font-weight="500" fill="#6E6A62">Tokens</text>
  <text x="106" y="468" text-anchor="start" font-family="Inter, ui-sans-serif, sans-serif" font-size="12" font-weight="500" fill="#6E6A62">Working UI is the Design desktop app.</text>

</svg>
