<svg xmlns="http://www.w3.org/2000/svg" width="960" height="560" viewBox="0 0 960 560" fill="none" role="img" aria-label="Cortex product switcher in a macOS window">

  <defs>
    <linearGradient id="sky" x1="0" y1="0" x2="0" y2="1">
      <stop offset="0" stop-color="#D7E4DC"/>
      <stop offset="0.55" stop-color="#EFE8DC"/>
      <stop offset="1" stop-color="#C4D0C4"/>
    </linearGradient>
    <radialGradient id="mist" cx="50%" cy="70%" r="60%">
      <stop offset="0" stop-color="#FAF8F4" stop-opacity="0.35"/>
      <stop offset="1" stop-color="#1F4945" stop-opacity="0.12"/>
    </radialGradient>
  </defs>
  <rect width="960" height="560" fill="url(#sky)"/>
  <rect width="960" height="560" fill="url(#mist)"/>
  <path d="M0 360 C120 320 220 390 360 350 C500 310 620 390 960 330 L960 560 L0 560 Z" fill="#1F4945" opacity="0.22"/>
  <path d="M0 400 C160 360 280 430 480 390 C680 350 780 430 960 380 L960 560 L0 560 Z" fill="#211F1C" opacity="0.16"/>
  <ellipse cx="80" cy="430" rx="90" ry="64" fill="#1F4945" opacity="0.18"/><ellipse cx="180" cy="410" rx="70" ry="50" fill="#1F4945" opacity="0.22"/><ellipse cx="300" cy="440" rx="110" ry="79" fill="#1F4945" opacity="0.26"/><ellipse cx="720" cy="420" rx="95" ry="68" fill="#1F4945" opacity="0.18"/><ellipse cx="860" cy="400" rx="80" ry="57" fill="#1F4945" opacity="0.22"/>


  <rect x="87" y="67" width="786" height="426" rx="16" fill="none" stroke="#1F4945" stroke-width="2"/>
  <rect x="90" y="70" width="780" height="420" rx="13" fill="#FAF8F4"/>
  <rect x="90" y="70" width="780" height="420" rx="13" fill="none" stroke="#211F1C" stroke-width="1.5"/>
  <rect x="92" y="72" width="776" height="416" rx="11" fill="none" stroke="#E3DFD7" stroke-width="1"/>
  <rect x="90" y="70" width="780" height="36" rx="13" fill="#F3F0EA"/>
  <rect x="90" y="94" width="780" height="12" fill="#F3F0EA"/>
  <path d="M90 106 H870" stroke="#211F1C" stroke-width="1"/>
  <path d="M90 107 H870" stroke="#E3DFD7" stroke-width="1"/>
  
    <circle cx="108" cy="88" r="5" fill="#C4B8A8"/>
    <circle cx="124" cy="88" r="5" fill="#C4B8A8"/>
    <circle cx="140" cy="88" r="5" fill="#1F4945"/>

  <text x="480.0" y="93" text-anchor="middle" font-family="Inter, ui-sans-serif, sans-serif" font-size="12" font-weight="600" fill="#211F1C">Cortex — cortex.foundation</text>

  <rect x="102" y="118" width="168" height="360" fill="#F3F0EA"/>
  <path d="M270 118 V478" stroke="#E3DFD7" stroke-width="1"/>
  <text x="118" y="146" text-anchor="start" font-family="Inter, ui-sans-serif, sans-serif" font-size="12" font-weight="600" fill="#211F1C">New chat</text>
  <text x="118" y="174" text-anchor="start" font-family="Inter, ui-sans-serif, sans-serif" font-size="11" font-weight="600" fill="#6E6A62">Projects</text>
  <rect x="112" y="186" width="148" height="28" rx="7" fill="#E1E5DE"/>
  <text x="124" y="205" text-anchor="start" font-family="Inter, ui-sans-serif, sans-serif" font-size="12" font-weight="600" fill="#1F4945">Launch notes</text>
  <text x="124" y="236" text-anchor="start" font-family="Inter, ui-sans-serif, sans-serif" font-size="12" font-weight="500" fill="#6E6A62">Research brief</text>
  <text x="124" y="264" text-anchor="start" font-family="Inter, ui-sans-serif, sans-serif" font-size="12" font-weight="500" fill="#6E6A62">Image drafts</text>
<rect x="126" y="126" width="72" height="28" rx="7" fill="#E1E5DE"/><rect x="126" y="126" width="3" height="28" rx="1.5" fill="#1F4945"/><text x="162" y="145" text-anchor="middle" font-family="Inter, ui-sans-serif, sans-serif" font-size="13" font-weight="600" fill="#1F4945">Chat</text><rect x="214" y="126" width="72" height="28" rx="7" fill="transparent"/><text x="250" y="145" text-anchor="middle" font-family="Inter, ui-sans-serif, sans-serif" font-size="13" font-weight="600" fill="#6E6A62">Code</text><rect x="302" y="126" width="72" height="28" rx="7" fill="transparent"/><text x="338" y="145" text-anchor="middle" font-family="Inter, ui-sans-serif, sans-serif" font-size="13" font-weight="600" fill="#6E6A62">Bot</text>
  <rect x="126" y="170" width="280" height="44" rx="12" fill="#F3F0EA"/>
  <text x="142" y="197" text-anchor="start" font-family="Inter, ui-sans-serif, sans-serif" font-size="13" font-weight="500" fill="#211F1C">What can Cortex Chat do?</text>
  <rect x="126" y="226" width="420" height="68" rx="12" fill="#FAF8F4" stroke="#E3DFD7" stroke-width="1"/>
  <text x="142" y="252" text-anchor="start" font-family="Inter, ui-sans-serif, sans-serif" font-size="13" font-weight="500" fill="#211F1C">Projects, documents, research, and pictures —</text>
  <text x="142" y="274" text-anchor="start" font-family="Inter, ui-sans-serif, sans-serif" font-size="13" font-weight="500" fill="#211F1C">before you sign in. Code and Bot need an account.</text>

  <rect x="126" y="406" width="708" height="56" rx="12" fill="#F3F0EA" stroke="#211F1C" stroke-width="1"/>
  <rect x="128" y="408" width="704" height="52" rx="10" fill="none" stroke="#E3DFD7" stroke-width="1"/>
  <text x="146" y="440" text-anchor="start" font-family="Inter, ui-sans-serif, sans-serif" font-size="14" font-weight="500" fill="#6E6A62">Ask Cortex anything…</text>
  <rect x="772" y="420" width="46" height="28" rx="8" fill="#211F1C"/>
  <text x="795" y="439" text-anchor="middle" font-family="Inter, ui-sans-serif, sans-serif" font-size="11" font-weight="600" fill="#FAF8F4">Send</text>
<text x="302" y="146" text-anchor="start" font-family="Inter, ui-sans-serif, sans-serif" font-size="12" font-weight="600" fill="#6E6A62">Chat  ·  Code  ·  Bot</text>
</svg>
