<svg xmlns="http://www.w3.org/2000/svg" width="320" height="180" viewBox="0 0 320 180" fill="none" role="img">
  <rect width="320" height="180" rx="16" fill="#C9D2DC"/>

  <path d="M92 52h72c8 0 14 6 14 14v36c0 8-6 14-14 14H132l-16 16v-16H92c-8 0-14-6-14-14V66c0-8 6-14 14-14z" fill="#FAF8F4" stroke="#1C1917" stroke-width="2.2" stroke-linejoin="round"/>
  <path d="M52 40h78c8 0 14 6 14 14v34c0 8-6 14-14 14H92l-14 14v-14H52c-8 0-14-6-14-14V54c0-8 6-14 14-14z" fill="#FAF8F4" stroke="#1C1917" stroke-width="2.2" stroke-linejoin="round"/>
  <path d="M78 68c8-12 18-14 22-4-8 2-12 10-14 18-6-4-8-8-8-14z" fill="#1F4945" stroke="#1C1917" stroke-width="1.3"/>
  <path d="M84 72c2 4 5 8 7 12" stroke="#1C1917" stroke-width="1.1" fill="none"/>

</svg>
