<svg xmlns="http://www.w3.org/2000/svg" width="320" height="180" viewBox="0 0 320 180" fill="none" role="img">
  <rect width="320" height="180" rx="16" fill="#D7E6D4"/>

  <!-- book -->
  <path d="M86 46c18 6 34 6 52 0v78c-18 8-36 8-52 0V46z" fill="#FAF8F4" stroke="#1C1917" stroke-width="2.2" stroke-linejoin="round"/>
  <path d="M86 46c-18 6-34 6-52 0v78c18 8 36 8 52 0V46z" fill="#FAF8F4" stroke="#1C1917" stroke-width="2.2" stroke-linejoin="round"/>
  <path d="M86 46v78" stroke="#1C1917" stroke-width="2"/>
  <!-- leaf -->
  <path d="M54 88c10-18 22-22 28-8-12 4-18 16-22 28-8-8-10-14-6-20z" fill="#1F4945" stroke="#1C1917" stroke-width="1.4"/>
  <path d="M62 92c4 6 8 12 10 18" stroke="#1C1917" stroke-width="1.2" fill="none"/>
  <!-- compass -->
  <circle cx="112" cy="96" r="18" fill="#FAF8F4" stroke="#1C1917" stroke-width="2"/>
  <circle cx="112" cy="96" r="3" fill="#1F4945"/>
  <path d="M112 82v6M112 104v6M98 96h6M120 96h6" stroke="#1C1917" stroke-width="1.4"/>
  <path d="M112 96 L104 108 L112 90 L120 108 Z" fill="#1F4945" opacity="0.85"/>

</svg>
